<?xml version="1.0" standalone="no"?>
<!DOCTYPE svg PUBLIC "-//W3C//DTD SVG 20010904//EN"
 "http://www.w3.org/TR/2001/REC-SVG-20010904/DTD/svg10.dtd">
<svg version="1.0" xmlns="http://www.w3.org/2000/svg"
 width="1678.000000pt" height="1678.000000pt" viewBox="0 0 1678.000000 1678.000000"
 preserveAspectRatio="xMidYMid meet">
<metadata>
Created by potrace 1.14, written by Peter Selinger 2001-2017
</metadata>
<g transform="translate(0.000000,1678.000000) scale(0.100000,-0.100000)"
fill="#000000" stroke="none">
<path d="M8090 16773 c-633 -27 -1193 -107 -1765 -253 -1399 -356 -2659 -1052
-3711 -2051 -1605 -1524 -2547 -3630 -2603 -5823 -15 -597 21 -1118 114 -1673
308 -1820 1231 -3510 2602 -4765 1491 -1364 3407 -2143 5408 -2197 792 -21
1494 51 2234 230 2623 633 4799 2516 5805 5022 897 2235 791 4758 -291 6899
-567 1123 -1369 2094 -2368 2869 -1258 975 -2785 1573 -4375 1713 -341 30
-759 42 -1050 29z m860 -1022 c917 -79 1715 -285 2520 -652 1587 -725 2904
-2042 3629 -3629 369 -810 574 -1606 653 -2535 17 -202 17 -884 0 -1085 -28
-332 -64 -597 -118 -875 -505 -2587 -2365 -4718 -4862 -5569 -1343 -457 -2801
-517 -4186 -170 -1927 482 -3599 1749 -4595 3482 -798 1389 -1119 2994 -920
4597 391 3150 2783 5709 5904 6319 308 60 648 103 995 126 170 11 814 5 980
-9z"/>
<path d="M4755 13544 c-221 -32 -484 -139 -655 -268 -203 -152 -336 -332 -410
-554 -43 -131 -53 -226 -53 -522 l1 -265 -52 -34 c-93 -62 -159 -124 -336
-315 -110 -119 -201 -229 -245 -295 -196 -293 -324 -642 -376 -1021 -17 -122
-17 -468 -1 -585 60 -419 214 -784 481 -1140 136 -180 364 -388 592 -541 247
-165 595 -291 969 -350 274 -43 686 -9 985 81 526 160 1012 528 1302 988 183
292 296 596 350 947 24 159 24 500 -1 660 -58 380 -224 780 -449 1083 -107
145 -376 408 -502 492 l-55 36 0 262 c0 364 -21 488 -110 667 -157 311 -464
540 -868 647 -88 24 -117 26 -317 28 -121 2 -233 1 -250 -1z m499 -458 c332
-87 571 -319 606 -590 12 -89 13 -316 2 -316 -5 0 -55 18 -113 39 -225 85
-480 125 -789 125 -310 0 -516 -33 -773 -125 -60 -21 -111 -39 -114 -39 -3 0
-3 78 -1 173 8 246 40 335 175 478 108 114 227 190 376 239 123 40 201 50 372
46 132 -3 177 -8 259 -30z m-129 -2228 c64 -33 149 -122 180 -190 l25 -53 0
-620 0 -621 -34 -69 c-37 -79 -95 -138 -171 -175 -44 -22 -63 -25 -160 -25
-103 0 -113 2 -163 30 -63 34 -130 105 -163 172 l-24 48 0 636 0 636 35 68
c41 80 101 135 186 171 51 21 71 24 149 21 73 -3 100 -8 140 -29z"/>
<path d="M11585 13305 c-279 -46 -506 -145 -701 -305 -119 -99 -262 -291 -322
-435 -60 -145 -82 -314 -82 -636 l0 -218 -36 -28 c-113 -87 -241 -199 -329
-287 -318 -319 -550 -784 -637 -1276 -18 -101 -17 -580 1 -710 25 -182 109
-452 210 -675 50 -111 175 -311 262 -420 221 -277 391 -423 719 -618 180 -106
463 -211 682 -251 426 -78 836 -52 1215 78 527 180 889 460 1212 936 190 279
299 555 368 925 25 137 25 585 0 750 -89 583 -436 1155 -918 1514 l-79 59 -4
298 c-4 320 -8 355 -62 504 -60 169 -146 302 -268 417 -210 198 -411 304 -691
363 -134 28 -411 36 -540 15z m464 -440 c230 -48 437 -180 555 -353 51 -75 80
-148 95 -243 14 -82 14 -319 1 -319 -5 0 -42 13 -82 29 -160 63 -418 115 -661
133 -317 24 -604 -18 -953 -138 -39 -13 -74 -24 -77 -24 -11 0 -8 281 3 341
13 70 77 198 135 271 166 210 482 336 808 322 59 -2 138 -11 176 -19z m-67
-2249 c73 -35 150 -118 175 -188 17 -49 18 -97 18 -663 0 -555 -2 -614 -17
-660 -25 -71 -94 -154 -164 -195 -58 -35 -59 -35 -179 -35 -104 0 -125 3 -160
22 -63 34 -135 112 -169 183 l-31 65 0 620 0 620 28 60 c30 64 81 123 135 157
60 37 112 48 212 45 79 -3 105 -8 152 -31z"/>
<path d="M8267 8040 c-258 -24 -510 -116 -692 -252 -89 -67 -245 -216 -300
-289 -152 -196 -205 -403 -209 -817 l-2 -234 -72 -52 c-478 -348 -827 -906
-931 -1486 -97 -535 -9 -1088 247 -1555 114 -208 328 -488 455 -595 30 -25 89
-76 133 -114 216 -187 546 -359 866 -451 228 -66 340 -80 633 -79 226 0 277 3
390 23 395 70 795 252 1111 505 94 75 310 301 397 414 152 199 303 500 372
748 80 284 86 324 92 617 6 307 -2 393 -54 600 -98 393 -227 648 -490 975
-137 169 -359 377 -450 420 l-33 16 0 198 c0 218 -11 351 -40 474 -78 335
-292 594 -650 787 -211 114 -511 171 -773 147z m336 -451 c187 -37 328 -111
457 -239 167 -165 218 -281 227 -517 4 -91 2 -143 -4 -143 -5 0 -93 25 -194
55 -101 31 -240 65 -309 76 -244 40 -581 40 -785 0 -101 -19 -358 -89 -428
-116 -72 -28 -70 -32 -65 128 4 122 9 154 33 226 49 146 160 289 292 379 66
45 180 103 236 122 163 52 371 64 540 29z m-47 -2256 c90 -47 163 -151 184
-262 6 -32 10 -273 10 -600 0 -608 -1 -621 -65 -718 -41 -62 -112 -117 -175
-135 -25 -7 -81 -13 -125 -13 -66 0 -90 5 -136 26 -79 37 -133 90 -171 167
l-33 67 -3 575 c-3 407 0 595 8 642 21 118 103 215 221 259 74 27 225 23 285
-8z"/>
</g>
</svg>
