<svg width="845" height="72" viewBox="0 0 845 72" fill="none" xmlns="http://www.w3.org/2000/svg">
<g clip-path="url(#clip0)">
<path fill-rule="evenodd" clip-rule="evenodd" d="M1.64529 21.5484C0.835871 21.2786 0 21.8811 0 22.7343V69C0 70.6569 1.34315 72 3 72H14C15.6569 72 17 70.6569 17 69V29.5497C17 27.828 15.8983 26.2994 14.2649 25.755L1.64529 21.5484Z" fill="#1BA778"/>
<path fill-rule="evenodd" clip-rule="evenodd" d="M27.5 31.9009C27.5 31.0477 28.3359 30.4453 29.1453 30.7151L36 33L42.8547 30.7151C43.6641 30.4453 44.5 31.0477 44.5 31.9009V69C44.5 70.6569 43.1569 72 41.5 72H30.5C28.8431 72 27.5 70.6569 27.5 69V31.9009Z" fill="#1BA778"/>
<path fill-rule="evenodd" clip-rule="evenodd" d="M57.7351 25.755C56.1017 26.2994 55 27.828 55 29.5497V69C55 70.6569 56.3431 72 58 72H69C70.6569 72 72 70.6569 72 69V22.7343C72 21.8811 71.1641 21.2786 70.3547 21.5484L57.7351 25.755Z" fill="#1BA778"/>
<path d="M36 23L1.36754 11.4558C0.550856 11.1836 0 10.4193 0 9.55848V4C0 1.79086 1.79086 0 4 0H68C70.2091 0 72 1.79086 72 4V9.55848C72 10.4193 71.4491 11.1836 70.6325 11.4558L36 23Z" fill="#1BA778"/>
<path fill-rule="evenodd" clip-rule="evenodd" d="M677.588 19.2428C682.226 19.2428 683.807 21.9969 684.482 24.3956L684.465 24.4133C684.927 25.7815 685.602 26.4567 686.952 26.3501H692.833C694.077 26.3501 695.09 25.3195 695.09 24.058C695.09 16.7375 689.102 9.86128 677.802 9.86128C665.364 9.86128 659.607 15.6004 659.607 24.1823C659.607 35.555 668.298 38.1584 675.585 40.3409C680.844 41.9161 685.371 43.2722 685.371 47.5474C685.371 52.0071 683.132 53.4997 677.482 53.4997C670.241 53.4997 669.232 48.7536 668.854 46.9783C668.842 46.9194 668.83 46.8637 668.819 46.8117C668.803 46.7424 668.789 46.6795 668.775 46.6234C668.509 45.8239 667.869 44.6867 666.626 44.6867H660.744C659.501 44.6867 658.488 45.7173 658.488 46.9788C658.488 53.9616 664.245 62.7746 677.357 62.7746C686.632 62.7746 695.783 58.8834 695.783 47.654C695.783 35.593 686.664 32.9397 679.277 30.7902C674.247 29.3266 670.019 28.0964 670.019 24.289C670.019 20.2734 672.844 19.2428 677.588 19.2428ZM744.485 13.0595C744.485 11.798 743.472 10.7675 742.229 10.7675H736.223C734.979 10.7675 733.967 11.798 733.967 13.0595V42.0393C733.967 49.6085 730.377 52.8067 725.26 52.8067C720.143 52.8067 716.678 49.5907 716.678 42.0393V13.0595C716.678 11.798 715.665 10.7675 714.422 10.7675H708.434C707.19 10.7675 706.177 11.798 706.177 13.0595V42.0393C706.177 54.8678 713.871 62.7746 725.278 62.7746C736.685 62.7746 744.485 54.8678 744.485 42.0393V13.0595ZM222.19 9.96789C233.721 9.96789 242.41 18.5499 242.41 31.4139V41.2042C242.41 54.0327 233.828 62.7391 222.19 62.7391C210.552 62.7391 202.183 54.0327 202.183 41.2042V31.3962C202.183 18.5676 210.658 9.95012 222.19 9.95012V9.96789ZM222.19 52.7889C227.502 52.7889 231.909 48.7911 231.909 41.3285V31.5916C231.909 24.0402 227.502 20.0246 222.19 20.0246C216.877 20.0246 212.737 24.0224 212.737 31.5916V41.3285C212.737 48.8977 217.037 52.7889 222.19 52.7889ZM254.741 59.7718V13.0595C254.741 11.798 255.754 10.7675 256.997 10.7675H272.829C284.574 10.7675 293.173 19.3494 293.173 32.2135V40.6889C293.173 53.5174 284.467 62.2238 272.829 62.2238H256.997C255.754 62.1172 254.741 61.0866 254.741 59.8251V59.7718ZM265.135 51.9894H272.704C278.017 51.9894 282.424 47.9916 282.424 40.529V32.2846C282.424 24.8398 278.017 20.8242 272.704 20.8242H265.135V51.9894ZM189.87 13.0595V59.7896C189.87 61.0511 188.857 62.0817 187.613 62.0817H182.069C180.826 62.0817 179.813 61.0511 179.813 59.7896V27.4872L168.512 60.5891C168.068 61.7263 167.375 62.0817 166.629 62.0817H161.068C160.055 62.0817 159.593 61.6197 159.255 60.7135L147.582 27.3628V59.7718C147.582 61.0333 146.569 62.0639 145.325 62.0639H139.906C138.662 62.0639 137.649 61.0333 137.649 59.7718V13.0595C137.649 11.798 138.662 10.7675 139.906 10.7675H149.998C150.762 10.7142 151.455 11.1939 151.686 11.9046L163.893 47.1742L176.206 12.0112C176.437 11.5493 176.881 10.7497 177.787 10.7497H187.755C188.892 10.7497 189.905 11.7802 189.905 13.0418L189.87 13.0595ZM315.899 20.7353H335.106C336.35 20.7353 337.363 19.7048 337.363 18.4433V13.0595C337.363 11.798 336.35 10.7674 335.106 10.7674H307.637C306.393 10.7674 305.38 11.798 305.38 13.0595V59.8073C305.38 61.0689 306.393 62.0994 307.637 62.0994H335.106C336.35 62.0994 337.363 61.0689 337.363 59.8073V54.317C337.363 53.0199 336.35 52.1138 335.106 52.1138H315.899V41.0087H330.806C332.05 41.0087 333.063 39.9782 333.063 38.7166V33.3329C333.063 32.0714 332.05 31.0408 330.806 31.0408H315.899V20.7353ZM357.6 62.0639H351.613C350.369 62.0639 349.356 61.0333 349.356 59.7718V13.0595C349.356 11.798 350.369 10.7674 351.613 10.7674H371.051C379.97 10.7674 386.651 15.9202 386.651 26.1191V28.3223C386.651 35.1985 384.164 40.1203 377.732 42.4124L385.976 58.4392L386.001 58.4899C386.33 59.1651 386.651 59.8242 386.651 60.5003C386.651 61.4065 385.976 62.0994 385.07 62.0994H377.714C376.47 62.0994 375.795 61.1932 375.333 60.3759L367.533 44.3491H359.857V59.8073C359.857 61.0689 358.844 62.0994 357.6 62.0994V62.0639ZM370.145 34.3634C373.538 34.3634 376.133 32.6399 376.133 28.1802V27.1496C376.133 22.5654 373.538 20.7353 370.145 20.7353H359.75V34.3634H370.145ZM438.285 59.7896V13.0595C438.285 11.798 437.272 10.7674 436.029 10.7674H430.272C429.028 10.7674 428.015 11.798 428.015 13.0595V43.0698L411.295 12.491C410.958 11.9046 409.945 10.7674 408.701 10.7674H400.812C399.569 10.7674 398.556 11.798 398.556 13.0595V59.8073C398.556 61.0689 399.569 62.0994 400.812 62.0994H406.569C407.813 62.0994 408.826 61.0689 408.826 59.8073V27.1674L426.807 59.452C428.332 62.0908 429.411 62.0856 430.187 62.0819L430.272 62.0816H436.029C437.272 62.0816 438.285 61.0511 438.285 59.7896ZM472.418 10.7674C471.174 10.7674 470.161 11.798 470.161 13.0595L470.179 18.4077C470.179 19.6693 471.192 20.6998 472.435 20.6998H484.411V59.7896C484.411 61.0511 485.424 62.0816 486.668 62.0816H492.655C493.899 62.0816 494.912 61.0511 494.912 59.7896V20.7353H506.888C508.131 20.7353 509.144 19.7048 509.144 18.4433V13.0595C509.144 11.798 508.131 10.7674 506.888 10.7674H472.418ZM527.445 62.0639H521.457C520.214 62.0639 519.201 61.0333 519.201 59.7718V13.0595C519.201 11.798 520.214 10.7674 521.457 10.7674H540.896C549.815 10.7674 556.496 15.9202 556.496 26.1191V28.3223C556.496 35.1985 554.008 40.1203 547.576 42.4124L555.821 58.4392L555.846 58.4901C556.175 59.1652 556.496 59.8243 556.496 60.5003C556.496 61.4065 555.821 62.0994 554.915 62.0994H547.559C546.315 62.0994 545.64 61.1932 545.178 60.3759L537.378 44.3491H529.702V59.8073C529.702 61.0689 528.689 62.0994 527.445 62.0994V62.0639ZM539.989 34.3634C543.383 34.3634 545.977 32.6399 545.977 28.1802V27.1496C545.977 22.5654 543.383 20.7353 539.989 20.7353H529.595V34.3634H539.989ZM578.99 20.7353H598.198C599.441 20.7353 600.454 19.7048 600.454 18.4433V13.0595C600.454 11.798 599.441 10.7674 598.198 10.7674H570.728C569.484 10.7674 568.472 11.798 568.472 13.0595V59.8073C568.472 61.0689 569.484 62.0994 570.728 62.0994H598.198C599.441 62.0994 600.454 61.0689 600.454 59.8073V54.317C600.454 53.0199 599.441 52.1138 598.198 52.1138H578.99V41.0087H593.898C595.141 41.0087 596.154 39.9782 596.154 38.7166V33.3329C596.154 32.0714 595.141 31.0408 593.898 31.0408H578.99V20.7353ZM653.362 60.4648C653.362 61.3709 652.687 62.0639 651.674 62.0639H644.443C643.59 62.0994 642.826 61.6019 642.524 60.8024L639.592 51.9894H620.829L617.897 60.8024C617.56 61.8329 616.76 62.1705 616.209 62.1705H609.333C608.427 62.1705 607.645 61.4775 607.645 60.5714C607.645 60.2733 607.741 59.9827 607.838 59.6899C607.891 59.5288 607.945 59.3671 607.983 59.2032L624.365 12.4732C624.596 11.7802 625.271 10.8741 626.515 10.8741H634.652C635.896 10.8741 636.571 11.7802 636.802 12.4732L652.687 58.6347C652.918 58.6347 653.362 59.8962 653.362 60.4648ZM636.643 42.3591L630.548 23.1163L624.098 42.3591H636.643ZM765.735 62.0639H759.747C758.503 62.0639 757.491 61.0333 757.491 59.7718V13.0595C757.491 11.798 758.503 10.7674 759.747 10.7674H779.186C788.105 10.7674 794.786 15.9202 794.786 26.1191V28.3223C794.786 35.1985 792.298 40.1203 785.866 42.4124L794.111 58.4392L794.135 58.4899C794.465 59.1651 794.786 59.8242 794.786 60.5003C794.786 61.4065 794.111 62.0994 793.204 62.0994H785.849C784.605 62.0994 783.93 61.1932 783.468 60.3759L775.667 44.3491H767.992V59.8073C767.992 61.0689 766.979 62.0994 765.735 62.0994V62.0639ZM778.404 34.3634C781.797 34.3634 784.392 32.6399 784.392 28.1802V27.1496C784.392 22.5654 781.797 20.7353 778.404 20.7353H768.009V34.3634H778.404ZM843.713 15.0728C844.168 14.2712 844.763 13.2235 844.763 12.4732V12.4554C844.816 11.4782 844.052 10.6608 843.075 10.6253H835.95C834.874 10.6253 834.476 11.2235 834.17 11.684C834.122 11.7559 834.076 11.8245 834.031 11.8868L823.068 32.9598L812.443 12.0112C811.998 10.9984 811.323 10.6431 810.755 10.6431H803.079H803.008C802.084 10.6786 801.373 11.4426 801.391 12.3666C801.391 12.9767 801.919 13.8558 802.271 14.4434C802.381 14.6259 802.473 14.7802 802.528 14.8897L817.666 42.9454V59.7718C817.666 61.0333 818.679 62.0639 819.923 62.0639H825.911C827.155 62.0639 828.167 61.0333 828.167 59.7718V43.1587L843.626 15.2272L843.713 15.0728Z" fill="#1BA778"/>
</g>
<defs>
<clipPath id="clip0">
<rect width="845" height="72" fill="white"/>
</clipPath>
</defs>
</svg>
