<svg width="1200" height="102" viewBox="0 0 1200 102" fill="none" xmlns="http://www.w3.org/2000/svg">
<g id="Logo - Horizontal - Clear">
<g id="logo">
<path id="Combined Shape" fill-rule="evenodd" clip-rule="evenodd" d="M4.2328 25.3968H97.3545C99.6924 25.3968 101.587 23.5005 101.587 21.164V4.2328C101.587 1.89489 99.6924 0 97.3545 0H4.2328C1.89489 0 0 1.89489 0 4.2328V21.164C0 23.5005 1.89489 25.3968 4.2328 25.3968ZM4.2328 101.587H21.164C23.5019 101.587 25.3968 99.691 25.3968 97.3545V42.328C25.3968 39.9901 23.5019 38.0952 21.164 38.0952H4.2328C1.89489 38.0952 0 39.9901 0 42.328V97.3545C0 99.691 1.89489 101.587 4.2328 101.587ZM59.2593 101.587H42.328C39.9901 101.587 38.0952 99.691 38.0952 97.3545V42.328C38.0952 39.9901 39.9901 38.0952 42.328 38.0952H59.2593C61.5972 38.0952 63.4921 39.9901 63.4921 42.328V97.3545C63.4921 99.691 61.5972 101.587 59.2593 101.587ZM80.4233 101.587H97.3545C99.6924 101.587 101.587 99.691 101.587 97.3545V42.328C101.587 39.9901 99.6924 38.0952 97.3545 38.0952H80.4233C78.0854 38.0952 76.1905 39.9901 76.1905 42.328V97.3545C76.1905 99.691 78.0854 101.587 80.4233 101.587Z" fill="#1BA778"/>
<path id="Clip 11" fill-rule="evenodd" clip-rule="evenodd" d="M934.425 32.7372C934.425 60.1753 970.532 51.189 970.532 65.4689C970.532 71.7261 967.405 73.8114 959.488 73.8114C948.56 73.8114 947.768 66.1058 947.292 64.1784C946.939 63.0555 946.029 61.452 944.29 61.452H936.051C934.312 61.452 932.884 62.8935 932.884 64.6589C932.884 74.4511 940.955 86.8036 959.327 86.8036C972.313 86.8036 985.14 81.3522 985.14 65.6226C985.14 37.2207 949.034 46.0506 949.034 32.8923C949.034 27.2761 952.988 25.832 959.638 25.832C966.127 25.832 968.345 29.6785 969.294 33.0515L969.264 33.0556C969.898 34.9776 970.847 35.9413 972.745 35.782H980.983C982.723 35.782 984.15 34.3406 984.15 32.5738C984.15 22.3094 975.756 12.6778 959.92 12.6778C942.504 12.6778 934.425 20.7018 934.425 32.7372ZM289.31 42.8465V56.6006C289.31 74.5705 301.032 86.7638 317.34 86.7638C333.648 86.7638 345.684 74.5705 345.684 56.6006V42.8863C345.684 24.8765 333.493 12.8425 317.34 12.8425V12.8013C301.186 12.8013 289.31 24.8765 289.31 42.8465ZM304.084 56.8092V43.1677C304.084 32.5738 309.9 26.9631 317.34 26.9631C324.78 26.9631 330.958 32.5779 330.958 43.1677V56.8037C330.958 67.2411 324.784 72.8518 317.34 72.8518V72.8545C310.103 72.8545 304.084 67.399 304.084 56.8092ZM1182.97 13.7952C1181.23 13.7952 1180.75 14.9223 1180.28 15.5634L1164.91 45.0855L1150.02 15.7213C1149.39 14.2826 1148.44 13.7952 1147.65 13.7952H1136.88C1136.87 13.7952 1136.86 13.7952 1136.85 13.7952C1136.22 13.7952 1135.62 14.0451 1135.18 14.4912C1134.73 14.947 1134.48 15.5648 1134.5 16.2031C1134.5 17.3316 1135.77 19.0984 1136.09 19.7381L1157.31 59.0496V82.6344C1157.31 84.397 1158.73 85.8412 1160.47 85.8412H1168.87C1170.61 85.8412 1172.04 84.4012 1172.04 82.6344V59.3668L1193.69 20.2186C1194.32 19.0943 1195.27 17.4881 1195.27 16.3679L1195.33 16.3637C1195.38 14.9978 1194.31 13.8501 1192.95 13.7952H1182.97ZM255.106 13.9559C253.839 13.9559 253.208 15.0829 252.889 15.7213L235.628 64.987L218.528 15.5689C218.193 14.553 217.216 13.8941 216.15 13.9627H202.01C200.271 13.9627 198.843 15.4042 198.843 17.1696V82.6385C198.843 84.4012 200.271 85.8453 202.01 85.8453H209.61C211.352 85.8453 212.78 84.4053 212.78 82.6385V37.2303L229.127 83.9207C229.6 85.2056 230.231 85.8453 231.659 85.8453H239.462C240.53 85.8453 241.481 85.3649 242.113 83.7587L257.948 37.3896V82.6385C257.948 84.4012 259.376 85.8453 261.115 85.8453H268.876C270.615 85.8453 272.043 84.4053 272.043 82.6385V17.1696L272.087 17.1627C272.087 15.4 270.663 13.9559 269.083 13.9559H255.106ZM1074.76 13.9627C1073.02 13.9627 1071.59 15.4042 1071.59 17.1696V82.6426C1071.59 84.4053 1073.02 85.8495 1074.76 85.8495H1083.15L1083.15 85.8906C1084.89 85.8906 1086.32 84.4492 1086.32 82.6824V61.0182H1097.08L1108.01 83.4841C1108.65 84.6084 1109.6 85.8906 1111.34 85.8906H1121.64C1122.9 85.8906 1123.85 84.9256 1123.85 83.6461C1123.85 82.6824 1123.38 81.7201 1122.9 80.7564L1111.35 58.2946C1120.37 55.0809 1123.85 48.188 1123.85 38.5565V35.4635C1123.85 21.1823 1114.5 13.9627 1102 13.9627H1074.76ZM1086.32 27.9296H1100.89C1105.64 27.9296 1109.28 30.4967 1109.28 36.9173V38.3629C1109.28 44.6133 1105.64 47.0225 1100.89 47.0225V47.0253H1086.32V27.9296ZM1041.83 13.9627C1040.09 13.9627 1038.66 15.4042 1038.66 17.1696V57.7674C1038.66 68.3572 1033.64 72.8518 1026.47 72.8518C1019.29 72.8518 1014.43 68.3572 1014.43 57.7674V17.1696C1014.43 15.4083 1013 13.9627 1011.26 13.9627H1002.87C1001.12 13.9627 999.697 15.4042 999.697 17.1696V57.7674C999.697 75.7374 1010.47 86.8077 1026.46 86.8077C1042.45 86.8077 1053.38 75.7374 1053.38 57.7674V17.1696C1053.38 15.4083 1051.95 13.9627 1050.21 13.9627H1041.83ZM805.709 13.9627C803.969 13.9627 802.542 15.4042 802.542 17.1696V82.6824C802.542 84.4451 803.969 85.8906 805.709 85.8906H844.195C845.935 85.8906 847.363 84.4492 847.363 82.6824V74.981C847.363 73.1689 845.935 71.8894 844.195 71.8894H817.274V56.3233H838.171C839.913 56.3233 841.341 54.8818 841.341 53.115V45.5728C841.341 43.8102 839.913 42.3632 838.171 42.3632H817.274V27.9255H844.195V27.9227C845.935 27.9227 847.363 26.4813 847.363 24.7145V17.1696C847.363 15.4083 845.935 13.9627 844.195 13.9627H805.709ZM736.664 13.9627C734.925 13.9627 733.497 15.4042 733.497 17.1696V82.6426C733.497 84.4053 734.925 85.8495 736.664 85.8495H745.059L745.055 85.8906C746.796 85.8906 748.222 84.4492 748.222 82.6824V61.0182H758.992L769.921 83.4841C770.553 84.6084 771.508 85.8906 773.25 85.8906H783.543C784.811 85.8906 785.761 84.9256 785.761 83.6461C785.761 82.6824 785.288 81.7201 784.811 80.7564L773.252 58.2946C782.276 55.0809 785.757 48.188 785.757 38.5565V35.4635C785.757 21.1823 776.407 13.9627 763.902 13.9627H736.664ZM748.067 27.9296H762.635C767.389 27.9296 771.03 30.4967 771.03 36.9173V38.3629C771.03 44.6133 767.385 47.0225 762.635 47.0225V47.0253H748.067V27.9296ZM667.941 13.9627C666.201 13.9627 664.774 15.4042 664.774 17.1696H664.757V24.6733C664.757 26.436 666.182 27.8816 667.924 27.8816H684.714V82.6385C684.714 84.4012 686.14 85.8453 687.882 85.8453H696.277C698.016 85.8453 699.444 84.4053 699.444 82.6385V27.9227H716.234C717.975 27.9227 719.403 26.4813 719.403 24.7145V17.1696C719.403 15.4083 717.975 13.9627 716.234 13.9627H667.941ZM608.877 13.9627C607.135 13.9627 605.707 15.4042 605.707 17.1696V59.2116L582.274 16.3706C581.8 15.5689 580.375 13.9627 578.633 13.9627H567.586C565.845 13.9627 564.419 15.4042 564.419 17.1696V82.6426C564.419 84.4053 565.845 85.8495 567.586 85.8495H575.662C577.404 85.8495 578.831 84.4108 578.831 82.6426V36.9146L604.016 82.158C606.225 86.0046 607.774 85.8453 608.877 85.8453H616.953C618.696 85.8453 620.12 84.4053 620.12 82.6385V17.1696C620.12 15.4083 618.696 13.9627 616.953 13.9627H608.877ZM498.66 13.9627C496.92 13.9627 495.492 15.4042 495.492 17.1696V82.6426C495.492 84.4053 496.92 85.8495 498.66 85.8495H507.055V85.8906C508.796 85.8906 510.224 84.4492 510.224 82.6824V61.0182H520.99L531.918 83.4841C532.551 84.6084 533.502 85.8906 535.244 85.8906H545.54C546.809 85.8906 547.759 84.9256 547.759 83.6461C547.759 82.6824 547.285 81.7201 546.809 80.7564L535.248 58.2946C544.272 55.0809 547.753 48.188 547.753 38.5565V35.4635C547.753 21.1823 538.402 13.9627 525.9 13.9627H498.66ZM510.064 27.9296H524.633C529.387 27.9296 533.027 30.4967 533.027 36.9173V38.3629C533.027 44.6133 529.381 47.0225 524.633 47.0225V47.0253H510.064V27.9296ZM437.051 13.9627C435.31 13.9627 433.883 15.4042 433.883 17.1696V82.6824C433.883 84.4451 435.31 85.8906 437.051 85.8906H475.534C477.276 85.8906 478.704 84.4492 478.704 82.6824V74.981C478.704 73.1689 477.276 71.8894 475.534 71.8894H448.614V56.3233H469.512C471.254 56.3233 472.679 54.8818 472.679 53.115V45.5728C472.679 43.8102 471.254 42.3632 469.512 42.3632H448.614V27.9255H475.534V27.9227C477.276 27.9227 478.704 26.4813 478.704 24.7145V17.1696C478.704 15.4083 477.276 13.9627 475.534 13.9627H437.051ZM366.115 13.9627C364.373 13.9627 362.945 15.4042 362.945 17.1696V82.6385L362.937 82.6742C362.937 84.441 364.363 85.8865 366.106 86.0444H388.285C404.588 86.0444 416.784 73.8512 416.784 55.8798V44.0078C416.784 25.9994 404.753 13.9627 388.285 13.9627H366.115ZM377.514 71.7206V28.0751H388.117C395.558 28.0751 401.735 33.6954 401.735 44.1232V55.678C401.735 66.1141 395.563 71.7261 388.117 71.7261H377.514V71.7206ZM885.21 14.122C883.473 14.122 882.523 15.4042 882.205 16.3679L859.242 81.834C859.083 82.4792 858.766 83.1203 858.766 83.7587C858.766 85.0409 859.875 86.0046 861.143 86.0046H870.789C871.583 86.0046 872.687 85.5227 873.165 84.0799L877.282 71.7261H903.571L907.691 84.0799C908.111 85.1864 909.197 85.8975 910.381 85.8412H920.516C921.943 85.8412 922.893 84.8789 922.893 83.5967V83.5926C922.893 82.7977 922.262 81.0309 921.943 81.0309L899.613 16.3679C899.304 15.4042 898.35 14.122 896.608 14.122H885.21ZM890.91 31.293L899.459 58.2438H881.884L890.91 31.293Z" fill="#1BA778"/>
<mask id="mask0" mask-type="alpha" maskUnits="userSpaceOnUse" x="198" y="12" width="998" height="75">
<path id="Clip 11_2" fill-rule="evenodd" clip-rule="evenodd" d="M934.425 32.7372C934.425 60.1753 970.532 51.189 970.532 65.4689C970.532 71.7261 967.405 73.8114 959.488 73.8114C948.56 73.8114 947.768 66.1058 947.292 64.1784C946.939 63.0555 946.029 61.452 944.29 61.452H936.051C934.312 61.452 932.884 62.8935 932.884 64.6589C932.884 74.4511 940.955 86.8036 959.327 86.8036C972.313 86.8036 985.14 81.3522 985.14 65.6226C985.14 37.2207 949.034 46.0506 949.034 32.8923C949.034 27.2761 952.988 25.832 959.638 25.832C966.127 25.832 968.345 29.6785 969.294 33.0515L969.264 33.0556C969.898 34.9776 970.847 35.9413 972.745 35.782H980.983C982.723 35.782 984.15 34.3406 984.15 32.5738C984.15 22.3094 975.756 12.6778 959.92 12.6778C942.504 12.6778 934.425 20.7018 934.425 32.7372ZM289.31 42.8465V56.6006C289.31 74.5705 301.032 86.7638 317.34 86.7638C333.648 86.7638 345.684 74.5705 345.684 56.6006V42.8863C345.684 24.8765 333.493 12.8425 317.34 12.8425V12.8013C301.186 12.8013 289.31 24.8765 289.31 42.8465ZM304.084 56.8092V43.1677C304.084 32.5738 309.9 26.9631 317.34 26.9631C324.78 26.9631 330.958 32.5779 330.958 43.1677V56.8037C330.958 67.2411 324.784 72.8518 317.34 72.8518V72.8545C310.103 72.8545 304.084 67.399 304.084 56.8092ZM1182.97 13.7952C1181.23 13.7952 1180.75 14.9223 1180.28 15.5634L1164.91 45.0855L1150.02 15.7213C1149.39 14.2826 1148.44 13.7952 1147.65 13.7952H1136.88C1136.87 13.7952 1136.86 13.7952 1136.85 13.7952C1136.22 13.7952 1135.62 14.0451 1135.18 14.4912C1134.73 14.947 1134.48 15.5648 1134.5 16.2031C1134.5 17.3316 1135.77 19.0984 1136.09 19.7381L1157.31 59.0496V82.6344C1157.31 84.397 1158.73 85.8412 1160.47 85.8412H1168.87C1170.61 85.8412 1172.04 84.4012 1172.04 82.6344V59.3668L1193.69 20.2186C1194.32 19.0943 1195.27 17.4881 1195.27 16.3679L1195.33 16.3637C1195.38 14.9978 1194.31 13.8501 1192.95 13.7952H1182.97ZM255.106 13.9559C253.839 13.9559 253.208 15.0829 252.889 15.7213L235.628 64.987L218.528 15.5689C218.193 14.553 217.216 13.8941 216.15 13.9627H202.01C200.271 13.9627 198.843 15.4042 198.843 17.1696V82.6385C198.843 84.4012 200.271 85.8453 202.01 85.8453H209.61C211.352 85.8453 212.78 84.4053 212.78 82.6385V37.2303L229.127 83.9207C229.6 85.2056 230.231 85.8453 231.659 85.8453H239.462C240.53 85.8453 241.481 85.3649 242.113 83.7587L257.948 37.3896V82.6385C257.948 84.4012 259.376 85.8453 261.115 85.8453H268.876C270.615 85.8453 272.043 84.4053 272.043 82.6385V17.1696L272.087 17.1627C272.087 15.4 270.663 13.9559 269.083 13.9559H255.106ZM1074.76 13.9627C1073.02 13.9627 1071.59 15.4042 1071.59 17.1696V82.6426C1071.59 84.4053 1073.02 85.8495 1074.76 85.8495H1083.15L1083.15 85.8906C1084.89 85.8906 1086.32 84.4492 1086.32 82.6824V61.0182H1097.08L1108.01 83.4841C1108.65 84.6084 1109.6 85.8906 1111.34 85.8906H1121.64C1122.9 85.8906 1123.85 84.9256 1123.85 83.6461C1123.85 82.6824 1123.38 81.7201 1122.9 80.7564L1111.35 58.2946C1120.37 55.0809 1123.85 48.188 1123.85 38.5565V35.4635C1123.85 21.1823 1114.5 13.9627 1102 13.9627H1074.76ZM1086.32 27.9296H1100.89C1105.64 27.9296 1109.28 30.4967 1109.28 36.9173V38.3629C1109.28 44.6133 1105.64 47.0225 1100.89 47.0225V47.0253H1086.32V27.9296ZM1041.83 13.9627C1040.09 13.9627 1038.66 15.4042 1038.66 17.1696V57.7674C1038.66 68.3572 1033.64 72.8518 1026.47 72.8518C1019.29 72.8518 1014.43 68.3572 1014.43 57.7674V17.1696C1014.43 15.4083 1013 13.9627 1011.26 13.9627H1002.87C1001.12 13.9627 999.697 15.4042 999.697 17.1696V57.7674C999.697 75.7374 1010.47 86.8077 1026.46 86.8077C1042.45 86.8077 1053.38 75.7374 1053.38 57.7674V17.1696C1053.38 15.4083 1051.95 13.9627 1050.21 13.9627H1041.83ZM805.709 13.9627C803.969 13.9627 802.542 15.4042 802.542 17.1696V82.6824C802.542 84.4451 803.969 85.8906 805.709 85.8906H844.195C845.935 85.8906 847.363 84.4492 847.363 82.6824V74.981C847.363 73.1689 845.935 71.8894 844.195 71.8894H817.274V56.3233H838.171C839.913 56.3233 841.341 54.8818 841.341 53.115V45.5728C841.341 43.8102 839.913 42.3632 838.171 42.3632H817.274V27.9255H844.195V27.9227C845.935 27.9227 847.363 26.4813 847.363 24.7145V17.1696C847.363 15.4083 845.935 13.9627 844.195 13.9627H805.709ZM736.664 13.9627C734.925 13.9627 733.497 15.4042 733.497 17.1696V82.6426C733.497 84.4053 734.925 85.8495 736.664 85.8495H745.059L745.055 85.8906C746.796 85.8906 748.222 84.4492 748.222 82.6824V61.0182H758.992L769.921 83.4841C770.553 84.6084 771.508 85.8906 773.25 85.8906H783.543C784.811 85.8906 785.761 84.9256 785.761 83.6461C785.761 82.6824 785.288 81.7201 784.811 80.7564L773.252 58.2946C782.276 55.0809 785.757 48.188 785.757 38.5565V35.4635C785.757 21.1823 776.407 13.9627 763.902 13.9627H736.664ZM748.067 27.9296H762.635C767.389 27.9296 771.03 30.4967 771.03 36.9173V38.3629C771.03 44.6133 767.385 47.0225 762.635 47.0225V47.0253H748.067V27.9296ZM667.941 13.9627C666.201 13.9627 664.774 15.4042 664.774 17.1696H664.757V24.6733C664.757 26.436 666.182 27.8816 667.924 27.8816H684.714V82.6385C684.714 84.4012 686.14 85.8453 687.882 85.8453H696.277C698.016 85.8453 699.444 84.4053 699.444 82.6385V27.9227H716.234C717.975 27.9227 719.403 26.4813 719.403 24.7145V17.1696C719.403 15.4083 717.975 13.9627 716.234 13.9627H667.941ZM608.877 13.9627C607.135 13.9627 605.707 15.4042 605.707 17.1696V59.2116L582.274 16.3706C581.8 15.5689 580.375 13.9627 578.633 13.9627H567.586C565.845 13.9627 564.419 15.4042 564.419 17.1696V82.6426C564.419 84.4053 565.845 85.8495 567.586 85.8495H575.662C577.404 85.8495 578.831 84.4108 578.831 82.6426V36.9146L604.016 82.158C606.225 86.0046 607.774 85.8453 608.877 85.8453H616.953C618.696 85.8453 620.12 84.4053 620.12 82.6385V17.1696C620.12 15.4083 618.696 13.9627 616.953 13.9627H608.877ZM498.66 13.9627C496.92 13.9627 495.492 15.4042 495.492 17.1696V82.6426C495.492 84.4053 496.92 85.8495 498.66 85.8495H507.055V85.8906C508.796 85.8906 510.224 84.4492 510.224 82.6824V61.0182H520.99L531.918 83.4841C532.551 84.6084 533.502 85.8906 535.244 85.8906H545.54C546.809 85.8906 547.759 84.9256 547.759 83.6461C547.759 82.6824 547.285 81.7201 546.809 80.7564L535.248 58.2946C544.272 55.0809 547.753 48.188 547.753 38.5565V35.4635C547.753 21.1823 538.402 13.9627 525.9 13.9627H498.66ZM510.064 27.9296H524.633C529.387 27.9296 533.027 30.4967 533.027 36.9173V38.3629C533.027 44.6133 529.381 47.0225 524.633 47.0225V47.0253H510.064V27.9296ZM437.051 13.9627C435.31 13.9627 433.883 15.4042 433.883 17.1696V82.6824C433.883 84.4451 435.31 85.8906 437.051 85.8906H475.534C477.276 85.8906 478.704 84.4492 478.704 82.6824V74.981C478.704 73.1689 477.276 71.8894 475.534 71.8894H448.614V56.3233H469.512C471.254 56.3233 472.679 54.8818 472.679 53.115V45.5728C472.679 43.8102 471.254 42.3632 469.512 42.3632H448.614V27.9255H475.534V27.9227C477.276 27.9227 478.704 26.4813 478.704 24.7145V17.1696C478.704 15.4083 477.276 13.9627 475.534 13.9627H437.051ZM366.115 13.9627C364.373 13.9627 362.945 15.4042 362.945 17.1696V82.6385L362.937 82.6742C362.937 84.441 364.363 85.8865 366.106 86.0444H388.285C404.588 86.0444 416.784 73.8512 416.784 55.8798V44.0078C416.784 25.9994 404.753 13.9627 388.285 13.9627H366.115ZM377.514 71.7206V28.0751H388.117C395.558 28.0751 401.735 33.6954 401.735 44.1232V55.678C401.735 66.1141 395.563 71.7261 388.117 71.7261H377.514V71.7206ZM885.21 14.122C883.473 14.122 882.523 15.4042 882.205 16.3679L859.242 81.834C859.083 82.4792 858.766 83.1203 858.766 83.7587C858.766 85.0409 859.875 86.0046 861.143 86.0046H870.789C871.583 86.0046 872.687 85.5227 873.165 84.0799L877.282 71.7261H903.571L907.691 84.0799C908.111 85.1864 909.197 85.8975 910.381 85.8412H920.516C921.943 85.8412 922.893 84.8789 922.893 83.5967V83.5926C922.893 82.7977 922.262 81.0309 921.943 81.0309L899.613 16.3679C899.304 15.4042 898.35 14.122 896.608 14.122H885.21ZM890.91 31.293L899.459 58.2438H881.884L890.91 31.293Z" fill="white"/>
</mask>
<g mask="url(#mask0)">
</g>
</g>
</g>
</svg>
